<svg width="69" height="69" viewBox="0 0 69 69" fill="none" xmlns="http://www.w3.org/2000/svg">
<path fill-rule="evenodd" clip-rule="evenodd" d="M34.5 0C15.4387 0 0 15.4387 0 34.5C0 49.7663 9.87562 62.6606 23.5894 67.2319C25.3144 67.5338 25.9612 66.4987 25.9612 65.5931C25.9612 64.7738 25.9181 62.0569 25.9181 59.1675C17.25 60.7631 15.0075 57.0544 14.3175 55.1138C13.9294 54.1219 12.2475 51.06 10.7812 50.2406C9.57375 49.5938 7.84875 47.9981 10.7381 47.955C13.455 47.9119 15.3956 50.4562 16.0425 51.4912C19.1475 56.7094 24.1069 55.2431 26.0906 54.3375C26.3925 52.095 27.2981 50.5856 28.29 49.7231C20.6138 48.8606 12.5925 45.885 12.5925 32.6888C12.5925 28.9369 13.9294 25.8319 16.1287 23.4169C15.7838 22.5544 14.5763 19.0181 16.4737 14.2744C16.4737 14.2744 19.3631 13.3688 25.9612 17.8106C28.7212 17.0344 31.6537 16.6462 34.5863 16.6462C37.5187 16.6462 40.4512 17.0344 43.2113 17.8106C49.8094 13.3256 52.6987 14.2744 52.6987 14.2744C54.5962 19.0181 53.3888 22.5544 53.0438 23.4169C55.2431 25.8319 56.58 28.8937 56.58 32.6888C56.58 45.9281 48.5156 48.8606 40.8394 49.7231C42.09 50.8013 43.1681 52.8712 43.1681 56.1056C43.1681 60.72 43.125 64.4287 43.125 65.5931C43.125 66.4987 43.7719 67.5769 45.4969 67.2319C52.3456 64.9196 58.2969 60.5178 62.513 54.6462C66.7292 48.7745 68.9979 41.7286 69 34.5C69 15.4387 53.5612 0 34.5 0Z" fill="white"/>
</svg>
