<svg width="69" height="69" viewBox="0 0 69 69" fill="none" xmlns="http://www.w3.org/2000/svg">
<path fill-rule="evenodd" clip-rule="evenodd" d="M21.4619 3.06475C24.8343 2.9095 25.9095 2.875 34.5 2.875C43.0905 2.875 44.1658 2.91237 47.5353 3.06475C50.9048 3.21712 53.2048 3.75475 55.2173 4.53387C57.3246 5.33025 59.2365 6.57512 60.8178 8.18512C62.4278 9.7635 63.6698 11.6725 64.4633 13.7827C65.2453 15.7952 65.78 18.0952 65.9353 21.459C66.0905 24.8371 66.125 25.9124 66.125 34.5C66.125 43.0905 66.0876 44.1657 65.9353 47.5381C65.7829 50.9019 65.2453 53.2019 64.4633 55.2144C63.6697 57.3249 62.4257 59.2371 60.8178 60.8177C59.2365 62.4277 57.3246 63.6697 55.2173 64.4632C53.2048 65.2452 50.9048 65.78 47.541 65.9352C44.1658 66.0905 43.0905 66.125 34.5 66.125C25.9095 66.125 24.8343 66.0876 21.4619 65.9352C18.0981 65.7829 15.7981 65.2452 13.7856 64.4632C11.6751 63.6696 9.76298 62.4256 8.18225 60.8177C6.57334 59.2384 5.32828 57.3272 4.53388 55.2172C3.75475 53.2047 3.22 50.9047 3.06475 47.541C2.9095 44.1629 2.875 43.0876 2.875 34.5C2.875 25.9095 2.91237 24.8342 3.06475 21.4647C3.21712 18.0952 3.75475 15.7952 4.53388 13.7827C5.32945 11.6727 6.57547 9.76153 8.18512 8.18225C9.76362 6.57369 11.6739 5.32865 13.7828 4.53387C15.7953 3.75475 18.0953 3.22 21.459 3.06475H21.4619ZM47.2794 8.75725C43.9444 8.60487 42.9439 8.57325 34.5 8.57325C26.0561 8.57325 25.0556 8.60487 21.7206 8.75725C18.6358 8.89812 16.9625 9.41275 15.847 9.84687C14.3721 10.4219 13.317 11.1032 12.2101 12.2101C11.1609 13.2309 10.3534 14.4736 9.84688 15.847C9.41275 16.9625 8.89813 18.6357 8.75725 21.7206C8.60488 25.0556 8.57325 26.0561 8.57325 34.5C8.57325 42.9439 8.60488 43.9444 8.75725 47.2794C8.89813 50.3642 9.41275 52.0375 9.84688 53.153C10.3529 54.5244 11.1608 55.7692 12.2101 56.7899C13.2308 57.8392 14.4756 58.6471 15.847 59.1531C16.9625 59.5872 18.6358 60.1019 21.7206 60.2427C25.0556 60.3951 26.0533 60.4267 34.5 60.4267C42.9468 60.4267 43.9444 60.3951 47.2794 60.2427C50.3643 60.1019 52.0375 59.5872 53.153 59.1531C54.6279 58.5781 55.683 57.8967 56.7899 56.7899C57.8393 55.7692 58.6471 54.5244 59.1531 53.153C59.5873 52.0375 60.1019 50.3642 60.2428 47.2794C60.3951 43.9444 60.4268 42.9439 60.4268 34.5C60.4268 26.0561 60.3951 25.0556 60.2428 21.7206C60.1019 18.6357 59.5873 16.9625 59.1531 15.847C58.5781 14.3721 57.8968 13.317 56.7899 12.2101C55.769 11.161 54.5264 10.3535 53.153 9.84687C52.0375 9.41275 50.3643 8.89812 47.2794 8.75725ZM30.4606 44.2491C32.7165 45.1882 35.2285 45.3149 37.5674 44.6077C39.9064 43.9005 41.9273 42.4031 43.2849 40.3714C44.6425 38.3398 45.2527 35.8997 45.0111 33.4682C44.7696 31.0366 43.6914 28.7643 41.9606 27.0394C40.8573 25.9367 39.5232 25.0925 38.0545 24.5673C36.5857 24.0421 35.0187 23.8492 33.4664 24.0023C31.9141 24.1554 30.4151 24.6508 29.0772 25.4527C27.7393 26.2547 26.5959 27.3434 25.7292 28.6403C24.8626 29.9373 24.2943 31.4102 24.0652 32.9531C23.8362 34.4961 23.9521 36.0706 24.4046 37.5634C24.857 39.0561 25.6349 40.43 26.6821 41.5861C27.7293 42.7421 29.0197 43.6516 30.4606 44.2491ZM23.0058 23.0057C24.5152 21.4963 26.3072 20.2989 28.2794 19.482C30.2515 18.6651 32.3653 18.2447 34.5 18.2447C36.6347 18.2447 38.7485 18.6651 40.7206 19.482C42.6928 20.2989 44.4848 21.4963 45.9943 23.0057C47.5037 24.5152 48.7011 26.3072 49.518 28.2794C50.3349 30.2515 50.7553 32.3653 50.7553 34.5C50.7553 36.6347 50.3349 38.7485 49.518 40.7206C48.7011 42.6928 47.5037 44.4848 45.9943 45.9942C42.9458 49.0427 38.8112 50.7553 34.5 50.7553C30.1888 50.7553 26.0542 49.0427 23.0058 45.9942C19.9573 42.9458 18.2447 38.8112 18.2447 34.5C18.2447 30.1888 19.9573 26.0542 23.0058 23.0057ZM54.3605 20.6655C54.7346 20.3126 55.034 19.8883 55.2411 19.4177C55.4482 18.947 55.5588 18.4396 55.5663 17.9254C55.5738 17.4113 55.4781 16.9008 55.2848 16.4243C55.0915 15.9478 54.8045 15.515 54.4409 15.1514C54.0773 14.7878 53.6444 14.5008 53.1679 14.3075C52.6914 14.1142 52.181 14.0184 51.6668 14.0259C51.1527 14.0334 50.6452 14.144 50.1746 14.3511C49.7039 14.5582 49.2796 14.8577 48.9268 15.2317C48.2405 15.9592 47.8648 16.9255 47.8794 17.9254C47.894 18.9254 48.2977 19.8803 49.0048 20.5874C49.712 21.2946 50.6669 21.6983 51.6668 21.7129C52.6668 21.7274 53.633 21.3517 54.3605 20.6655Z" fill="white"/>
</svg>
