<svg width="69" height="69" viewBox="0 0 69 69" fill="none" xmlns="http://www.w3.org/2000/svg">
<path fill-rule="evenodd" clip-rule="evenodd" d="M2.875 8.15926C2.875 6.75779 3.43173 5.41372 4.42272 4.42273C5.41371 3.43174 6.75778 2.87501 8.15925 2.87501H60.835C61.5295 2.87387 62.2175 3.00974 62.8594 3.27482C63.5014 3.53991 64.0847 3.92901 64.5761 4.41985C65.0675 4.91069 65.4572 5.49362 65.723 6.13529C65.9888 6.77695 66.1254 7.46473 66.125 8.15926V60.835C66.1258 61.5297 65.9895 62.2177 65.7241 62.8596C65.4587 63.5016 65.0694 64.0849 64.5783 64.5763C64.0872 65.0676 63.5041 65.4573 62.8623 65.723C62.2205 65.9888 61.5325 66.1254 60.8379 66.125H8.15925C7.46507 66.125 6.77769 65.9882 6.13639 65.7225C5.49509 65.4568 4.91243 65.0673 4.4217 64.5763C3.93098 64.0853 3.5418 63.5024 3.27641 62.861C3.01103 62.2195 2.87462 61.5321 2.875 60.8379V8.15926ZM27.9105 26.9905H36.4751V31.2915C37.7114 28.819 40.8739 26.5938 45.6263 26.5938C54.7371 26.5938 56.8963 31.5186 56.8963 40.5548V57.293H47.6761V42.6133C47.6761 37.467 46.4399 34.5633 43.3004 34.5633C38.9447 34.5633 37.1335 37.6941 37.1335 42.6133V57.293H27.9105V26.9905ZM12.098 56.8991H21.321V26.5938H12.098V56.8963V56.8991ZM22.6406 16.7095C22.658 17.4992 22.5175 18.2844 22.2273 19.019C21.9371 19.7537 21.5031 20.423 20.9508 20.9876C20.3984 21.5522 19.7389 22.0009 19.0108 22.3071C18.2827 22.6134 17.5008 22.7712 16.7109 22.7712C15.9211 22.7712 15.1391 22.6134 14.4111 22.3071C13.683 22.0009 13.0234 21.5522 12.4711 20.9876C11.9187 20.423 11.4847 19.7537 11.1946 19.019C10.9044 18.2844 10.7639 17.4992 10.7813 16.7095C10.8154 15.1595 11.4551 13.6844 12.5634 12.6002C13.6717 11.5161 15.1605 10.909 16.7109 10.909C18.2614 10.909 19.7501 11.5161 20.8585 12.6002C21.9668 13.6844 22.6065 15.1595 22.6406 16.7095Z" fill="white"/>
</svg>
